<?xml version="1.0" standalone="no"?>
<!DOCTYPE svg PUBLIC "-//W3C//DTD SVG 20010904//EN"
 "http://www.w3.org/TR/2001/REC-SVG-20010904/DTD/svg10.dtd">
<svg version="1.0" xmlns="http://www.w3.org/2000/svg"
 width="500.000000pt" height="250.000000pt" viewBox="0 0 500.000000 250.000000"
 preserveAspectRatio="xMidYMid meet">
<metadata>
Created by potrace 1.16, written by Peter Selinger 2001-2019
</metadata>
<g transform="translate(0.000000,250.000000) scale(0.100000,-0.100000)"
fill="#000000" stroke="none">
<path d="M4246 2007 c-183 -191 -216 -215 -216 -157 0 23 5 30 19 30 55 0 83
45 55 87 -13 21 -22 24 -51 21 -23 -3 -50 3 -79 18 -24 12 -66 28 -94 35 -27
7 -50 16 -50 21 0 14 -181 9 -255 -7 -39 -8 -87 -15 -107 -15 -21 0 -38 -4
-38 -8 0 -18 -91 -102 -110 -102 -11 0 -20 -7 -20 -15 0 -9 9 -15 25 -15 14 0
27 -6 29 -12 10 -31 14 -119 7 -116 -5 2 -93 93 -195 203 -102 110 -191 202
-197 204 -38 12 22 -64 202 -258 l205 -221 23 -271 24 -271 -74 -76 c-41 -43
-139 -143 -219 -224 -118 -121 -142 -150 -131 -160 11 -11 51 26 221 201 l207
214 7 -74 c4 -41 12 -104 18 -142 l12 -67 38 0 c36 0 38 2 38 30 l0 30 150 0
c126 0 152 -2 157 -15 8 -24 57 -45 101 -45 49 0 88 29 111 82 l16 39 124
-135 c116 -126 141 -146 141 -111 0 7 -84 102 -186 211 l-185 199 5 50 c3 28
13 147 21 265 9 118 18 221 20 228 3 7 23 12 55 12 l50 0 0 79 0 79 156 161
c119 123 155 165 152 182 -2 18 -34 -10 -182 -164z m-626 -12 l0 -25 105 0
c100 0 105 1 105 21 0 19 4 21 38 14 52 -9 122 -44 122 -61 0 -12 -40 -14
-241 -14 l-240 0 3 37 c3 33 7 39 33 44 62 13 75 11 75 -16z m370 -135 c0 -22
-4 -40 -10 -40 -5 0 -10 -21 -10 -46 0 -39 -6 -53 -42 -95 -38 -46 -43 -48
-50 -30 -7 20 -15 21 -133 21 l-125 0 0 -40 0 -40 112 0 113 0 -83 -82 -83
-83 -70 75 c-38 41 -99 107 -134 146 l-65 71 -7 92 -6 91 297 0 296 0 0 -40z
m-14 -227 c-3 -21 -13 -135 -22 -253 -9 -118 -19 -217 -20 -219 -4 -5 -190
189 -212 221 -12 16 -1 31 114 153 71 74 132 135 137 135 5 0 6 -17 3 -37z
m-357 -195 l33 -38 -50 -57 c-28 -32 -71 -78 -95 -102 l-46 -44 -5 34 c-8 50
-36 351 -36 390 0 33 0 33 83 -57 46 -49 98 -106 116 -126z m190 -203 c67 -71
121 -137 121 -145 0 -9 -16 -22 -36 -29 -40 -14 -74 -62 -74 -103 l0 -28 -170
0 c-169 0 -170 0 -171 23 0 12 -4 60 -8 107 l-9 85 106 113 c57 62 108 111
113 110 4 -2 62 -61 128 -133z"/>
<path d="M810 1975 c-303 -69 -539 -291 -618 -580 -78 -284 -4 -577 200 -786
160 -165 350 -246 581 -248 l77 -1 0 121 0 121 -45 -6 c-43 -7 -140 6 -200 26
-182 61 -323 205 -386 393 -22 63 -18 267 5 335 45 129 126 235 236 306 99 64
162 84 288 91 l102 6 0 118 0 119 -92 -1 c-51 -1 -118 -7 -148 -14z"/>
<path d="M2205 1973 c-33 -8 -71 -17 -85 -20 -14 -4 -63 -26 -110 -49 -203
-103 -347 -275 -420 -504 -21 -65 -24 -94 -24 -225 0 -132 2 -159 24 -225 93
-287 284 -478 560 -560 56 -17 103 -23 185 -24 l110 -1 0 115 0 115 -68 2
c-109 4 -176 20 -263 63 -83 42 -168 117 -220 193 -38 57 -74 138 -74 169 l0
28 228 2 227 3 0 120 0 120 -233 3 -232 2 6 28 c10 47 72 165 111 212 113 138
273 212 451 211 l73 0 -3 117 -3 117 -90 1 c-49 1 -117 -5 -150 -13z"/>
<path d="M3270 555 l0 -115 480 0 480 0 0 115 0 115 -480 0 -480 0 0 -115z"/>
</g>
</svg>
